<?xml version="1.0" encoding="UTF-8"?>
<svg id="Layer_1" xmlns="http://www.w3.org/2000/svg" xmlns:xlink="http://www.w3.org/1999/xlink" version="1.1" viewBox="0 0 1080 1080">
  <!-- Generator: Adobe Illustrator 30.4.0, SVG Export Plug-In . SVG Version: 2.1.4 Build 226)  -->
  <defs>
    <style>
      .st0 {
        fill: none;
      }

      .st1 {
        clip-path: url(#clippath);
      }
    </style>
    <clipPath id="clippath">
      <rect class="st0" width="1080" height="1080"/>
    </clipPath>
  </defs>
  <g class="st1">
    <path d="M516.2,134.1v118h-150.9v-111.6h29.3v73.7h27.6v-68.8h29.3v68.8h35.6v-80.1M516.2,425.7h-150.9v-37.9h54.3v-56.5h-54.3v-37.9h150.9v37.9h-63.6v56.5h63.6v37.9ZM400.4,461.6l15.1,30.2c-14,5.3-22.7,18.3-22.7,31.5,0,20.9,14,37.5,47.9,37.5s47.9-8.9,47.9-38.8-7.6-25.1-21.2-31.1l14.4-30c23.5,13,38.6,35.6,38.6,61.2,0,48.4-37.3,76.7-79.7,76.7s-79.7-26.4-79.7-73.7,14.4-49.4,39.4-63.5M516.2,765h-150.9v-75.9c0-34.1,15.7-55,49.6-55s35.2,12.4,40.7,31.3l60.6-34.7v42.4l-54.3,29.8v24.1h54.3v37.9ZM393.2,727.1h40.7v-34.7c-.2-12.1-6.4-20.2-20.3-20.2s-20.1,8.1-20.4,20.2v34.7ZM464.4,888.8v-37.9l-62.3,18.7v.4l62.3,18.7ZM516.2,945.9l-150.9-56v-39.2l150.9-57.3v40.7l-23.7,7.7v56l23.7,7.7v40.5Z"/>
    <path d="M613.1,783.4l15.4,23.9c-9.8,10.9-15.5,21.2-15.5,36.1s3.5,23.3,14.3,23.3,9.4-4.7,11-14l4.2-26c3.7-23.2,15.9-35.8,34.2-35.8,30,0,42.4,24.4,42.4,51s-8.4,41-23.9,55.1l-16.9-23.7c9.9-8.2,15.7-20.4,15.7-33.5s-4.5-17.7-12.6-17.7-10,5.4-11.9,17.4l-1.9,11.9c-4,24.9-11.7,45.4-35.4,45.4-37.3,0-44.3-33.9-44.3-57.2s6.8-39.3,25.3-56.3M591.3,655.4h124.3v31.2h-49.6l49.6,44.7v41.4l-47.1-45.4-77.1,46.8v-34.7l55.2-34-19-18.8h-36.1v-31.2ZM591.3,509.3h124.3v62.4c0,28.1-12.9,45.3-40.8,45.3s-29-10.2-33.5-25.8l-49.9,28.6v-34.9l44.7-24.6v-19.8h-44.7v-31.2ZM692.5,540.5h-33.5v28.6c.2,10,5.2,16.7,16.8,16.7s16.6-6.7,16.8-16.7v-28.6ZM653.4,480.8c-34.9,0-65.6-23.3-65.6-63.1s30.7-63.1,65.6-63.1,65.6,23.3,65.6,63.1-30.7,63.1-65.6,63.1M653.4,449.6c19.5,0,39.4-8.8,39.4-31.9s-11.5-31.9-39.4-31.9-39.4,7.4-39.4,31.9,20.3,31.9,39.4,31.9M591.3,206.1l124.3-32.6v31.2l-88.7,18.8v.4l88.7,21.9v28.6l-88.7,22.8v.3l88.7,18.6v30.7l-124.3-32.3v-32.5l85-22.3v-.4l-85-22.1v-31.2Z"/>
  </g>
</svg>